<svg xmlns="http://www.w3.org/2000/svg" xmlns:xlink="http://www.w3.org/1999/xlink" width="1000" height="559.33"><rect width="1000" height="559.33" rx="5" ry="5" class="a"/><svg y="0%" x="0%"><circle cx="20" cy="20" r="6" fill="#ff5f58"/><circle cx="40" cy="20" r="6" fill="#ffbd2e"/><circle cx="60" cy="20" r="6" fill="#18c132"/></svg><svg height="499.33" viewBox="0 0 96 49.933" width="960" x="15" xmlns="http://www.w3.org/2000/svg" xmlns:xlink="http://www.w3.org/1999/xlink" y="50"><style>@keyframes o{0%{transform:translateX(0)}2.93%{transform:translateX(-96px)}2.94%{transform:translateX(-384px)}5.43%{transform:translateX(-480px)}5.52%{transform:translateX(-576px)}5.7%{transform:translateX(-672px)}6.15%{transform:translateX(-768px)}6.27%{transform:translateX(-864px)}6.47%{transform:translateX(-960px)}7.01%{transform:translateX(-1248px)}7.04%{transform:translateX(-1728px)}8.83%{transform:translateX(-1824px)}8.92%{transform:translateX(-1920px)}9.09%{transform:translateX(-2016px)}9.72%{transform:translateX(-2208px)}9.73%{transform:translateX(-2496px)}9.74%{transform:translateX(-2784px)}14.19%{transform:translateX(-2880px)}14.75%{transform:translateX(-2976px)}15.05%{transform:translateX(-3072px)}15.35%{transform:translateX(-3264px)}15.37%{transform:translateX(-3552px)}15.38%{transform:translateX(-3744px)}21.12%{transform:translateX(-3840px)}21.72%{transform:translateX(-3936px)}21.99%{transform:translateX(-4224px)}22.01%{transform:translateX(-4512px)}22.02%{transform:translateX(-4704px)}27.08%{transform:translateX(-4800px)}29.58%{transform:translateX(-4896px)}29.97%{transform:translateX(-4992px)}30.95%{transform:translateX(-5088px)}31.9%{transform:translateX(-5184px)}32.11%{transform:translateX(-5280px)}32.44%{transform:translateX(-5376px)}33.45%{transform:translateX(-5472px)}33.93%{transform:translateX(-5568px)}34.23%{transform:translateX(-5760px)}34.35%{transform:translateX(-5856px)}34.36%{transform:translateX(-5952px)}34.38%{transform:translateX(-6336px)}34.39%{transform:translateX(-6528px)}39.32%{transform:translateX(-6624px)}39.59%{transform:translateX(-6720px)}41.37%{transform:translateX(-6816px)}41.7%{transform:translateX(-6912px)}43.96%{transform:translateX(-7008px)}44.53%{transform:translateX(-7104px)}44.65%{transform:translateX(-7200px)}44.8%{transform:translateX(-7296px)}45.21%{transform:translateX(-7392px)}45.36%{transform:translateX(-7488px)}45.69%{transform:translateX(-7584px)}45.95%{transform:translateX(-7680px)}46.67%{transform:translateX(-7776px)}48.64%{transform:translateX(-7968px)}48.68%{transform:translateX(-8064px)}48.69%{transform:translateX(-8160px)}55.01%{transform:translateX(-8448px)}55.02%{transform:translateX(-8640px)}56.2%{transform:translateX(-8736px)}60.4%{transform:translateX(-8832px)}60.7%{transform:translateX(-8928px)}61.02%{transform:translateX(-9024px)}61.8%{transform:translateX(-9120px)}65.25%{transform:translateX(-9216px)}65.85%{transform:translateX(-9312px)}66.56%{transform:translateX(-9408px)}67.49%{transform:translateX(-9504px)}67.72%{transform:translateX(-9600px)}68.35%{transform:translateX(-9696px)}68.53%{transform:translateX(-9792px)}68.73%{transform:translateX(-9888px)}69.07%{transform:translateX(-9984px)}70.97%{transform:translateX(-10080px)}71.95%{transform:translateX(-10176px)}72.37%{transform:translateX(-10272px)}72.84%{transform:translateX(-10368px)}73.08%{transform:translateX(-10464px)}73.59%{transform:translateX(-10560px)}73.83%{transform:translateX(-10656px)}73.95%{transform:translateX(-10752px)}74.09%{transform:translateX(-10848px)}74.78%{transform:translateX(-10944px)}74.99%{transform:translateX(-11040px)}79.33%{transform:translateX(-11136px)}79.49%{transform:translateX(-11232px)}79.72%{transform:translateX(-11328px)}81.06%{transform:translateX(-11424px)}81.21%{transform:translateX(-11520px)}81.45%{transform:translateX(-11616px)}81.7%{transform:translateX(-11712px)}85.08%{transform:translateX(-11808px)}85.26%{transform:translateX(-11904px)}86.07%{transform:translateX(-12000px)}88.57%{transform:translateX(-12096px)}88.69%{transform:translateX(-12192px)}88.98%{transform:translateX(-12288px)}89.16%{transform:translateX(-12384px)}89.56%{transform:translateX(-12480px)}91.16%{transform:translateX(-12576px)}91.41%{transform:translateX(-12672px)}93.78%{transform:translateX(-12960px)}93.89%{transform:translateX(-13248px)}93.9%{transform:translateX(-13536px)}to{transform:translateX(-13632px)}}.a{fill:#282d35}.f{fill:#a8cc8c;font-weight:700}.f,.g,.h{white-space:pre}.g{fill:#66c2cd;font-weight:700}.h{fill:#b9c0cb}.i{font-weight:700}.i,.j{fill:#e88388;white-space:pre}.k{fill:#a8cc8c}.k,.l,.q{white-space:pre}.l{fill:#66c2cd}.q{font-weight:700}.q,.r{fill:#dbab79}.s,.v{white-space:pre}.v{fill:#b9c0cb;font-weight:700}</style><g font-family="Monaco,Consolas,Menlo,'Bitstream Vera Sans Mono','Powerline Symbols',monospace" font-size="1.67"><defs><symbol id="1"><text y="1.67" class="f">➤</text><text x="3.006" y="1.67" class="g">.dotfiles</text></symbol><symbol id="2"><text y="1.67" class="f">➤</text><text x="3.006" y="1.67" class="g">.dotfiles</text><text x="13.026" y="1.67" class="h">whoami</text></symbol><symbol id="3"><text y="1.67" class="h">deck</text></symbol><symbol id="4"><text y="1.67" class="f">➤</text><text x="3.006" y="1.67" class="g">.dotfiles</text><text x="13.026" y="1.67" class="h">lkj</text></symbol><symbol id="5"><text y="1.67" class="h">zsh:</text><text x="5.01" y="1.67" class="h">command</text><text x="13.026" y="1.67" class="h">not</text><text x="17.034" y="1.67" class="h">found:</text><text x="24.048" y="1.67" class="h">lkj</text></symbol><symbol id="6"><text y="1.67" class="i">➤</text><text x="3.006" y="1.67" class="g">.dotfiles</text></symbol><symbol id="7"><text y="1.67" class="i">➤</text><text x="3.006" y="1.67" class="g">.dotfiles</text><text x="13.026" y="1.67" class="h">gss</text></symbol><symbol id="8"><text x="1.002" y="1.67" class="j">M</text><text x="3.006" y="1.67" class="h">README.md</text></symbol><symbol id="9"><text x="1.002" y="1.67" class="j">M</text><text x="3.006" y="1.67" class="h">bootstrap.sh</text></symbol><symbol id="10"><text x="1.002" y="1.67" class="j">M</text><text x="3.006" y="1.67" class="h">brew.sh</text></symbol><symbol id="11"><text y="1.67" class="j">??</text><text x="3.006" y="1.67" class="h">.todo.cfg</text></symbol><symbol id="12"><text y="1.67" class="j">??</text><text x="3.006" y="1.67" class="h">demo.cast</text></symbol><symbol id="13"><text y="1.67" class="f">➤</text><text x="3.006" y="1.67" class="g">.dotfiles</text><text x="13.026" y="1.67" class="h">gb</text></symbol><symbol id="14"><text y="1.67" class="h">*</text><text x="2.004" y="1.67" class="k">main</text></symbol><symbol id="15"><text y="1.67" class="f">➤</text><text x="3.006" y="1.67" class="g">.dotfiles</text><text x="13.026" y="1.67" class="h">t</text></symbol><symbol id="16"><text y="1.67" class="f">➤</text><text x="3.006" y="1.67" class="g">.dotfiles</text><text x="13.026" y="1.67" class="h">tt</text></symbol><symbol id="17"><text y="1.67" class="f">➤</text><text x="3.006" y="1.67" class="g">.dotfiles</text><text x="13.026" y="1.67" class="h">tt</text><text x="16.032" y="1.67" class="h">@de</text></symbol><symbol id="18"><text y="1.67" class="l">03</text><text x="3.006" y="1.67" class="l">(C)</text><text x="7.014" y="1.67" class="l">@de</text><text x="11.022" y="1.67" class="l">retirement</text><text x="22.044" y="1.67" class="l">contribution</text><text x="35.07" y="1.67" class="l">+onboarding</text></symbol><symbol id="19"><text y="1.67" class="h">01</text><text x="3.006" y="1.67" class="h">@de</text><text x="7.014" y="1.67" class="h">add</text><text x="11.022" y="1.67" class="h">asciinema</text><text x="21.042" y="1.67" class="h">+</text><text x="23.046" y="1.67" class="h">svg-term</text><text x="32.064" y="1.67" class="h">to</text><text x="35.07" y="1.67" class="h">dotfiles</text></symbol><symbol id="20"><text y="1.67" class="h">--</text></symbol><symbol id="21"><text y="1.67" class="h">TODO:</text><text x="6.012" y="1.67" class="h">2</text><text x="8.016" y="1.67" class="h">of</text><text x="11.022" y="1.67" class="h">29</text><text x="14.028" y="1.67" class="h">tasks</text><text x="20.04" y="1.67" class="h">shown</text></symbol><symbol id="22"><text y="1.67" class="f">➤</text><text x="3.006" y="1.67" class="g">.dotfiles</text><text x="13.026" y="1.67" class="h">agp</text></symbol><symbol id="23"><text y="1.67" class="f">➤</text><text x="3.006" y="1.67" class="g">.dotfiles</text><text x="13.026" y="1.67" class="h">agp</text><text x="17.034" y="1.67" class="h">danny</text></symbol><symbol id="24"><text y="1.67" class="f">➤</text><text x="3.006" y="1.67" class="g">.dotfiles</text><text x="13.026" y="1.67" class="h">jq</text></symbol><symbol id="25"><text y="1.67" class="f">➤</text><text x="3.006" y="1.67" class="g">.dotfiles</text><text x="13.026" y="1.67" class="h">jq</text><text x="16.032" y="1.67" class="h">&apos;</text></symbol><symbol id="26"><text y="1.67" class="f">➤</text><text x="3.006" y="1.67" class="g">.dotfiles</text><text x="13.026" y="1.67" class="h">jq</text><text x="16.032" y="1.67" class="h">&apos;.name,.version&apos;</text></symbol><symbol id="27"><text y="1.67" class="f">➤</text><text x="3.006" y="1.67" class="g">.dotfiles</text><text x="13.026" y="1.67" class="h">jq</text><text x="16.032" y="1.67" class="h">&apos;.name,.version&apos;</text><text x="33.066" y="1.67" class="h">ohmyzsh/plugins/git-open/package.json</text></symbol><symbol id="28"><text y="1.67" class="k">&quot;git-open&quot;</text></symbol><symbol id="29"><text y="1.67" class="k">&quot;2.1.0&quot;</text></symbol><symbol id="a"><path fill="transparent" d="M0 0h96v23H0z"/></symbol><symbol id="b"><path fill="#6f7683" d="M0 0h1.102v2.171H0z"/></symbol></defs><path class="a" d="M0 0h96v49.933H0z"/><g style="animation-duration:37.782094s;animation-iteration-count:infinite;animation-name:o;animation-timing-function:steps(1,end)"><svg width="13728"><svg><use xlink:href="#a"/><use xlink:href="#b" x="-.004"/></svg><svg x="96"><use xlink:href="#a"/><use xlink:href="#b" x="-.004"/></svg><svg x="192"><use xlink:href="#a"/><use xlink:href="#b" x="12.996"/><use xlink:href="#1"/></svg><svg x="288"><use xlink:href="#a"/><use xlink:href="#b" x="12.996"/><use xlink:href="#1"/></svg><svg x="384"><use xlink:href="#a"/><use xlink:href="#b" x="12.996"/><use xlink:href="#1"/></svg><svg x="480"><use xlink:href="#a"/><use xlink:href="#b" x="13.996"/><text y="1.67" class="f">➤</text><text x="3.006" y="1.67" class="g">.dotfiles</text><text x="13.026" y="1.67" class="h">w</text></svg><svg x="576"><use xlink:href="#a"/><use xlink:href="#b" x="14.996"/><text y="1.67" class="f">➤</text><text x="3.006" y="1.67" class="g">.dotfiles</text><text x="13.026" y="1.67" class="h">wh</text></svg><svg x="672"><use xlink:href="#a"/><use xlink:href="#b" x="15.996"/><text y="1.67" class="f">➤</text><text x="3.006" y="1.67" class="g">.dotfiles</text><text x="13.026" y="1.67" class="h">who</text></svg><svg x="768"><use xlink:href="#a"/><use xlink:href="#b" x="16.996"/><text y="1.67" class="f">➤</text><text x="3.006" y="1.67" class="g">.dotfiles</text><text x="13.026" y="1.67" class="h">whoa</text></svg><svg x="864"><use xlink:href="#a"/><use xlink:href="#b" x="17.996"/><text y="1.67" class="f">➤</text><text x="3.006" y="1.67" class="g">.dotfiles</text><text x="13.026" y="1.67" class="h">whoam</text></svg><svg x="960"><use xlink:href="#a"/><use xlink:href="#b" x="18.996"/><use xlink:href="#2"/></svg><svg x="1056"><use xlink:href="#a"/><use xlink:href="#b" x="18.996"/><use xlink:href="#2"/></svg><svg x="1152"><use xlink:href="#a"/><use xlink:href="#b" x="-.004" y="2.146"/><use xlink:href="#2"/></svg><svg x="1248"><use xlink:href="#a"/><use xlink:href="#b" x="-.004" y="2.146"/><use xlink:href="#2"/></svg><svg x="1344"><use xlink:href="#a"/><use xlink:href="#b" x="-.004" y="4.317"/><use xlink:href="#2"/><use xlink:href="#3" y="2.171"/></svg><svg x="1440"><use xlink:href="#a"/><use xlink:href="#b" x="-.004" y="4.317"/><use xlink:href="#2"/><use xlink:href="#3" y="2.171"/></svg><svg x="1536"><use xlink:href="#a"/><use xlink:href="#b" x="-.004" y="4.317"/><use xlink:href="#2"/><use xlink:href="#3" y="2.171"/></svg><svg x="1632"><use xlink:href="#a"/><use xlink:href="#b" x="12.996" y="4.317"/><use xlink:href="#2"/><use xlink:href="#3" y="2.171"/><use xlink:href="#1" y="4.342"/></svg><svg x="1728"><use xlink:href="#a"/><use xlink:href="#b" x="12.996" y="4.317"/><use xlink:href="#2"/><use xlink:href="#3" y="2.171"/><use xlink:href="#1" y="4.342"/></svg><svg x="1824"><use xlink:href="#a"/><use xlink:href="#b" x="13.996" y="4.317"/><use xlink:href="#2"/><use xlink:href="#3" y="2.171"/><text y="6.012" class="f">➤</text><text x="3.006" y="6.012" class="g">.dotfiles</text><text x="13.026" y="6.012" class="h">l</text></svg><svg x="1920"><use xlink:href="#a"/><use xlink:href="#b" x="14.996" y="4.317"/><use xlink:href="#2"/><use xlink:href="#3" y="2.171"/><text y="6.012" class="f">➤</text><text x="3.006" y="6.012" class="g">.dotfiles</text><text x="13.026" y="6.012" class="h">lk</text></svg><svg x="2016"><use xlink:href="#a"/><use xlink:href="#b" x="15.996" y="4.317"/><use xlink:href="#2"/><use xlink:href="#3" y="2.171"/><use xlink:href="#4" y="4.342"/></svg><svg x="2112"><use xlink:href="#a"/><use xlink:href="#b" x="-.004" y="6.488"/><use xlink:href="#2"/><use xlink:href="#3" y="2.171"/><use xlink:href="#4" y="4.342"/></svg><svg x="2208"><use xlink:href="#a"/><use xlink:href="#b" x="-.004" y="6.488"/><use xlink:href="#2"/><use xlink:href="#3" y="2.171"/><use xlink:href="#4" y="4.342"/></svg><svg x="2304"><use xlink:href="#a"/><use xlink:href="#b" x="-.004" y="8.659"/><use xlink:href="#2"/><use xlink:href="#3" y="2.171"/><use xlink:href="#4" y="4.342"/><use xlink:href="#5" y="6.513"/></svg><svg x="2400"><use xlink:href="#a"/><use xlink:href="#b" x="-.004" y="8.659"/><use xlink:href="#2"/><use xlink:href="#3" y="2.171"/><use xlink:href="#4" y="4.342"/><use xlink:href="#5" y="6.513"/></svg><svg x="2496"><use xlink:href="#a"/><use xlink:href="#b" x="-.004" y="8.659"/><use xlink:href="#2"/><use xlink:href="#3" y="2.171"/><use xlink:href="#4" y="4.342"/><use xlink:href="#5" y="6.513"/></svg><svg x="2592"><use xlink:href="#a"/><use xlink:href="#b" x="12.996" y="8.659"/><use xlink:href="#2"/><use xlink:href="#3" y="2.171"/><use xlink:href="#4" y="4.342"/><use xlink:href="#5" y="6.513"/><use xlink:href="#6" y="8.684"/></svg><svg x="2688"><use xlink:href="#a"/><use xlink:href="#b" x="12.996" y="8.659"/><use xlink:href="#2"/><use xlink:href="#3" y="2.171"/><use xlink:href="#4" y="4.342"/><use xlink:href="#5" y="6.513"/><use xlink:href="#6" y="8.684"/></svg><svg x="2784"><use xlink:href="#a"/><use xlink:href="#b" x="12.996" y="8.659"/><use xlink:href="#2"/><use xlink:href="#3" y="2.171"/><use xlink:href="#4" y="4.342"/><use xlink:href="#5" y="6.513"/><use xlink:href="#6" y="8.684"/></svg><svg x="2880"><use xlink:href="#a"/><use xlink:href="#b" x="13.996" y="8.659"/><use xlink:href="#2"/><use xlink:href="#3" y="2.171"/><use xlink:href="#4" y="4.342"/><use xlink:href="#5" y="6.513"/><text y="10.354" class="i">➤</text><text x="3.006" y="10.354" class="g">.dotfiles</text><text x="13.026" y="10.354" class="h">g</text></svg><svg x="2976"><use xlink:href="#a"/><use xlink:href="#b" x="14.996" y="8.659"/><use xlink:href="#2"/><use xlink:href="#3" y="2.171"/><use xlink:href="#4" y="4.342"/><use xlink:href="#5" y="6.513"/><text y="10.354" class="i">➤</text><text x="3.006" y="10.354" class="g">.dotfiles</text><text x="13.026" y="10.354" class="h">gs</text></svg><svg x="3072"><use xlink:href="#a"/><use xlink:href="#b" x="15.996" y="8.659"/><use xlink:href="#2"/><use xlink:href="#3" y="2.171"/><use xlink:href="#4" y="4.342"/><use xlink:href="#5" y="6.513"/><use xlink:href="#7" y="8.684"/></svg><svg x="3168"><use xlink:href="#a"/><use xlink:href="#b" x="-.004" y="10.83"/><use xlink:href="#2"/><use xlink:href="#3" y="2.171"/><use xlink:href="#4" y="4.342"/><use xlink:href="#5" y="6.513"/><use xlink:href="#7" y="8.684"/></svg><svg x="3264"><use xlink:href="#a"/><use xlink:href="#b" x="-.004" y="10.83"/><use xlink:href="#2"/><use xlink:href="#3" y="2.171"/><use xlink:href="#4" y="4.342"/><use xlink:href="#5" y="6.513"/><use xlink:href="#7" y="8.684"/></svg><svg x="3360"><use xlink:href="#a"/><use xlink:href="#b" x="-.004" y="21.685"/><use xlink:href="#2"/><use xlink:href="#3" y="2.171"/><use xlink:href="#4" y="4.342"/><use xlink:href="#5" y="6.513"/><use xlink:href="#7" y="8.684"/><use xlink:href="#8" y="10.855"/><use xlink:href="#9" y="13.026"/><use xlink:href="#10" y="15.197"/><use xlink:href="#11" y="17.368"/><use xlink:href="#12" y="19.539"/></svg><svg x="3456"><use xlink:href="#a"/><use xlink:href="#b" x="-.004" y="21.685"/><use xlink:href="#2"/><use xlink:href="#3" y="2.171"/><use xlink:href="#4" y="4.342"/><use xlink:href="#5" y="6.513"/><use xlink:href="#7" y="8.684"/><use xlink:href="#8" y="10.855"/><use xlink:href="#9" y="13.026"/><use xlink:href="#10" y="15.197"/><use xlink:href="#11" y="17.368"/><use xlink:href="#12" y="19.539"/></svg><svg x="3552"><use xlink:href="#a"/><use xlink:href="#b" x="-.004" y="21.685"/><use xlink:href="#2"/><use xlink:href="#3" y="2.171"/><use xlink:href="#4" y="4.342"/><use xlink:href="#5" y="6.513"/><use xlink:href="#7" y="8.684"/><use xlink:href="#8" y="10.855"/><use xlink:href="#9" y="13.026"/><use xlink:href="#10" y="15.197"/><use xlink:href="#11" y="17.368"/><use xlink:href="#12" y="19.539"/></svg><svg x="3648"><use xlink:href="#a"/><use xlink:href="#b" x="12.996" y="21.685"/><use xlink:href="#2"/><use xlink:href="#3" y="2.171"/><use xlink:href="#4" y="4.342"/><use xlink:href="#5" y="6.513"/><use xlink:href="#7" y="8.684"/><use xlink:href="#8" y="10.855"/><use xlink:href="#9" y="13.026"/><use xlink:href="#10" y="15.197"/><use xlink:href="#11" y="17.368"/><use xlink:href="#12" y="19.539"/><use xlink:href="#1" y="21.71"/></svg><svg x="3744"><use xlink:href="#a"/><use xlink:href="#b" x="12.996" y="21.685"/><use xlink:href="#2"/><use xlink:href="#3" y="2.171"/><use xlink:href="#4" y="4.342"/><use xlink:href="#5" y="6.513"/><use xlink:href="#7" y="8.684"/><use xlink:href="#8" y="10.855"/><use xlink:href="#9" y="13.026"/><use xlink:href="#10" y="15.197"/><use xlink:href="#11" y="17.368"/><use xlink:href="#12" y="19.539"/><use xlink:href="#1" y="21.71"/></svg><svg x="3840"><use xlink:href="#a"/><use xlink:href="#b" x="13.996" y="21.685"/><use xlink:href="#2"/><use xlink:href="#3" y="2.171"/><use xlink:href="#4" y="4.342"/><use xlink:href="#5" y="6.513"/><use xlink:href="#7" y="8.684"/><use xlink:href="#8" y="10.855"/><use xlink:href="#9" y="13.026"/><use xlink:href="#10" y="15.197"/><use xlink:href="#11" y="17.368"/><use xlink:href="#12" y="19.539"/><text y="23.38" class="f">➤</text><text x="3.006" y="23.38" class="g">.dotfiles</text><text x="13.026" y="23.38" class="h">g</text></svg><svg x="3936"><use xlink:href="#a"/><use xlink:href="#b" x="14.996" y="21.685"/><use xlink:href="#2"/><use xlink:href="#3" y="2.171"/><use xlink:href="#4" y="4.342"/><use xlink:href="#5" y="6.513"/><use xlink:href="#7" y="8.684"/><use xlink:href="#8" y="10.855"/><use xlink:href="#9" y="13.026"/><use xlink:href="#10" y="15.197"/><use xlink:href="#11" y="17.368"/><use xlink:href="#12" y="19.539"/><use xlink:href="#13" y="21.71"/></svg><svg x="4032"><use xlink:href="#a"/><use xlink:href="#b" x="14.996" y="21.685"/><use xlink:href="#2"/><use xlink:href="#3" y="2.171"/><use xlink:href="#4" y="4.342"/><use xlink:href="#5" y="6.513"/><use xlink:href="#7" y="8.684"/><use xlink:href="#8" y="10.855"/><use xlink:href="#9" y="13.026"/><use xlink:href="#10" y="15.197"/><use xlink:href="#11" y="17.368"/><use xlink:href="#12" y="19.539"/><use xlink:href="#13" y="21.71"/></svg><svg x="4128"><use xlink:href="#a"/><use xlink:href="#b" x="-.004" y="23.856"/><use xlink:href="#2"/><use xlink:href="#3" y="2.171"/><use xlink:href="#4" y="4.342"/><use xlink:href="#5" y="6.513"/><use xlink:href="#7" y="8.684"/><use xlink:href="#8" y="10.855"/><use xlink:href="#9" y="13.026"/><use xlink:href="#10" y="15.197"/><use xlink:href="#11" y="17.368"/><use xlink:href="#12" y="19.539"/><use xlink:href="#13" y="21.71"/></svg><svg x="4224"><use xlink:href="#a"/><use xlink:href="#b" x="-.004" y="23.856"/><use xlink:href="#2"/><use xlink:href="#3" y="2.171"/><use xlink:href="#4" y="4.342"/><use xlink:href="#5" y="6.513"/><use xlink:href="#7" y="8.684"/><use xlink:href="#8" y="10.855"/><use xlink:href="#9" y="13.026"/><use xlink:href="#10" y="15.197"/><use xlink:href="#11" y="17.368"/><use xlink:href="#12" y="19.539"/><use xlink:href="#13" y="21.71"/></svg><svg x="4320"><use xlink:href="#a"/><use xlink:href="#b" x="-.004" y="26.027"/><use xlink:href="#2"/><use xlink:href="#3" y="2.171"/><use xlink:href="#4" y="4.342"/><use xlink:href="#5" y="6.513"/><use xlink:href="#7" y="8.684"/><use xlink:href="#8" y="10.855"/><use xlink:href="#9" y="13.026"/><use xlink:href="#10" y="15.197"/><use xlink:href="#11" y="17.368"/><use xlink:href="#12" y="19.539"/><use xlink:href="#13" y="21.71"/><use xlink:href="#14" y="23.881"/></svg><svg x="4416"><use xlink:href="#a"/><use xlink:href="#b" x="-.004" y="26.027"/><use xlink:href="#2"/><use xlink:href="#3" y="2.171"/><use xlink:href="#4" y="4.342"/><use xlink:href="#5" y="6.513"/><use xlink:href="#7" y="8.684"/><use xlink:href="#8" y="10.855"/><use xlink:href="#9" y="13.026"/><use xlink:href="#10" y="15.197"/><use xlink:href="#11" y="17.368"/><use xlink:href="#12" y="19.539"/><use xlink:href="#13" y="21.71"/><use xlink:href="#14" y="23.881"/></svg><svg x="4512"><use xlink:href="#a"/><use xlink:href="#b" x="-.004" y="26.027"/><use xlink:href="#2"/><use xlink:href="#3" y="2.171"/><use xlink:href="#4" y="4.342"/><use xlink:href="#5" y="6.513"/><use xlink:href="#7" y="8.684"/><use xlink:href="#8" y="10.855"/><use xlink:href="#9" y="13.026"/><use xlink:href="#10" y="15.197"/><use xlink:href="#11" y="17.368"/><use xlink:href="#12" y="19.539"/><use xlink:href="#13" y="21.71"/><use xlink:href="#14" y="23.881"/></svg><svg x="4608"><use xlink:href="#a"/><use xlink:href="#b" x="12.996" y="26.027"/><use xlink:href="#2"/><use xlink:href="#3" y="2.171"/><use xlink:href="#4" y="4.342"/><use xlink:href="#5" y="6.513"/><use xlink:href="#7" y="8.684"/><use xlink:href="#8" y="10.855"/><use xlink:href="#9" y="13.026"/><use xlink:href="#10" y="15.197"/><use xlink:href="#11" y="17.368"/><use xlink:href="#12" y="19.539"/><use xlink:href="#13" y="21.71"/><use xlink:href="#14" y="23.881"/><use xlink:href="#1" y="26.052"/></svg><svg x="4704"><use xlink:href="#a"/><use xlink:href="#b" x="12.996" y="26.027"/><use xlink:href="#2"/><use xlink:href="#3" y="2.171"/><use xlink:href="#4" y="4.342"/><use xlink:href="#5" y="6.513"/><use xlink:href="#7" y="8.684"/><use xlink:href="#8" y="10.855"/><use xlink:href="#9" y="13.026"/><use xlink:href="#10" y="15.197"/><use xlink:href="#11" y="17.368"/><use xlink:href="#12" y="19.539"/><use xlink:href="#13" y="21.71"/><use xlink:href="#14" y="23.881"/><use xlink:href="#1" y="26.052"/></svg><svg x="4800"><use xlink:href="#a"/><use xlink:href="#b" x="12.996"/><use xlink:href="#1"/></svg><svg x="4896"><use xlink:href="#a"/><use xlink:href="#b" x="13.996"/><use xlink:href="#15"/></svg><svg x="4992"><use xlink:href="#a"/><use xlink:href="#b" x="14.996"/><use xlink:href="#16"/></svg><svg x="5088"><use xlink:href="#a"/><use xlink:href="#b" x="15.996"/><text y="1.67" class="f">➤</text><text x="3.006" y="1.67" class="g">.dotfiles</text><text x="13.026" y="1.67" class="h">tt@</text></svg><svg x="5184"><use xlink:href="#a"/><use xlink:href="#b" x="14.996"/><use xlink:href="#16"/></svg><svg x="5280"><use xlink:href="#a"/><use xlink:href="#b" x="15.996"/><use xlink:href="#16"/></svg><svg x="5376"><use xlink:href="#a"/><use xlink:href="#b" x="16.996"/><text y="1.67" class="f">➤</text><text x="3.006" y="1.67" class="g">.dotfiles</text><text x="13.026" y="1.67" class="h">tt</text><text x="16.032" y="1.67" class="h">@</text></svg><svg x="5472"><use xlink:href="#a"/><use xlink:href="#b" x="17.996"/><text y="1.67" class="f">➤</text><text x="3.006" y="1.67" class="g">.dotfiles</text><text x="13.026" y="1.67" class="h">tt</text><text x="16.032" y="1.67" class="h">@d</text></svg><svg x="5568"><use xlink:href="#a"/><use xlink:href="#b" x="18.996"/><use xlink:href="#17"/></svg><svg x="5664"><use xlink:href="#a"/><use xlink:href="#b" x="-.004" y="2.146"/><use xlink:href="#17"/></svg><svg x="5760"><use xlink:href="#a"/><use xlink:href="#b" x="-.004" y="2.146"/><use xlink:href="#17"/></svg><svg x="5856"><use xlink:href="#a"/><use xlink:href="#b" x="-.004" y="6.488"/><use xlink:href="#17"/><use xlink:href="#18" y="2.171"/><use xlink:href="#19" y="4.342"/></svg><svg x="5952"><use xlink:href="#a"/><use xlink:href="#b" x="-.004" y="8.659"/><use xlink:href="#17"/><use xlink:href="#18" y="2.171"/><use xlink:href="#19" y="4.342"/><use xlink:href="#20" y="6.513"/></svg><svg x="6048"><use xlink:href="#a"/><use xlink:href="#b" x="-.004" y="10.83"/><use xlink:href="#17"/><use xlink:href="#18" y="2.171"/><use xlink:href="#19" y="4.342"/><use xlink:href="#20" y="6.513"/><use xlink:href="#21" y="8.684"/></svg><svg x="6144"><use xlink:href="#a"/><use xlink:href="#b" x="-.004" y="10.83"/><use xlink:href="#17"/><use xlink:href="#18" y="2.171"/><use xlink:href="#19" y="4.342"/><use xlink:href="#20" y="6.513"/><use xlink:href="#21" y="8.684"/></svg><svg x="6240"><use xlink:href="#a"/><use xlink:href="#b" x="-.004" y="10.83"/><use xlink:href="#17"/><use xlink:href="#18" y="2.171"/><use xlink:href="#19" y="4.342"/><use xlink:href="#20" y="6.513"/><use xlink:href="#21" y="8.684"/></svg><svg x="6336"><use xlink:href="#a"/><use xlink:href="#b" x="-.004" y="10.83"/><use xlink:href="#17"/><use xlink:href="#18" y="2.171"/><use xlink:href="#19" y="4.342"/><use xlink:href="#20" y="6.513"/><use xlink:href="#21" y="8.684"/></svg><svg x="6432"><use xlink:href="#a"/><use xlink:href="#b" x="12.996" y="10.83"/><use xlink:href="#17"/><use xlink:href="#18" y="2.171"/><use xlink:href="#19" y="4.342"/><use xlink:href="#20" y="6.513"/><use xlink:href="#21" y="8.684"/><use xlink:href="#1" y="10.855"/></svg><svg x="6528"><use xlink:href="#a"/><use xlink:href="#b" x="12.996" y="10.83"/><use xlink:href="#17"/><use xlink:href="#18" y="2.171"/><use xlink:href="#19" y="4.342"/><use xlink:href="#20" y="6.513"/><use xlink:href="#21" y="8.684"/><use xlink:href="#1" y="10.855"/></svg><svg x="6624"><use xlink:href="#a"/><use xlink:href="#b" x="13.996" y="10.83"/><use xlink:href="#17"/><use xlink:href="#18" y="2.171"/><use xlink:href="#19" y="4.342"/><use xlink:href="#20" y="6.513"/><use xlink:href="#21" y="8.684"/><use xlink:href="#15" y="10.855"/></svg><svg x="6720"><use xlink:href="#a"/><use xlink:href="#b" x="14.996" y="10.83"/><use xlink:href="#17"/><use xlink:href="#18" y="2.171"/><use xlink:href="#19" y="4.342"/><use xlink:href="#20" y="6.513"/><use xlink:href="#21" y="8.684"/><use xlink:href="#16" y="10.855"/></svg><svg x="6816"><use xlink:href="#a"/><use xlink:href="#b" x="13.996" y="10.83"/><use xlink:href="#17"/><use xlink:href="#18" y="2.171"/><use xlink:href="#19" y="4.342"/><use xlink:href="#20" y="6.513"/><use xlink:href="#21" y="8.684"/><use xlink:href="#15" y="10.855"/></svg><svg x="6912"><use xlink:href="#a"/><use xlink:href="#b" x="12.996" y="10.83"/><use xlink:href="#17"/><use xlink:href="#18" y="2.171"/><use xlink:href="#19" y="4.342"/><use xlink:href="#20" y="6.513"/><use xlink:href="#21" y="8.684"/><use xlink:href="#1" y="10.855"/></svg><svg x="7008"><use xlink:href="#a"/><use xlink:href="#b" x="13.996" y="10.83"/><use xlink:href="#17"/><use xlink:href="#18" y="2.171"/><use xlink:href="#19" y="4.342"/><use xlink:href="#20" y="6.513"/><use xlink:href="#21" y="8.684"/><text y="12.525" class="f">➤</text><text x="3.006" y="12.525" class="g">.dotfiles</text><text x="13.026" y="12.525" class="h">a</text></svg><svg x="7104"><use xlink:href="#a"/><use xlink:href="#b" x="14.996" y="10.83"/><use xlink:href="#17"/><use xlink:href="#18" y="2.171"/><use xlink:href="#19" y="4.342"/><use xlink:href="#20" y="6.513"/><use xlink:href="#21" y="8.684"/><text y="12.525" class="f">➤</text><text x="3.006" y="12.525" class="g">.dotfiles</text><text x="13.026" y="12.525" class="h">ag</text></svg><svg x="7200"><use xlink:href="#a"/><use xlink:href="#b" x="15.996" y="10.83"/><use xlink:href="#17"/><use xlink:href="#18" y="2.171"/><use xlink:href="#19" y="4.342"/><use xlink:href="#20" y="6.513"/><use xlink:href="#21" y="8.684"/><use xlink:href="#22" y="10.855"/></svg><svg x="7296"><use xlink:href="#a"/><use xlink:href="#b" x="16.996" y="10.83"/><use xlink:href="#17"/><use xlink:href="#18" y="2.171"/><use xlink:href="#19" y="4.342"/><use xlink:href="#20" y="6.513"/><use xlink:href="#21" y="8.684"/><use xlink:href="#22" y="10.855"/></svg><svg x="7392"><use xlink:href="#a"/><use xlink:href="#b" x="17.996" y="10.83"/><use xlink:href="#17"/><use xlink:href="#18" y="2.171"/><use xlink:href="#19" y="4.342"/><use xlink:href="#20" y="6.513"/><use xlink:href="#21" y="8.684"/><text y="12.525" class="f">➤</text><text x="3.006" y="12.525" class="g">.dotfiles</text><text x="13.026" y="12.525" class="h">agp</text><text x="17.034" y="12.525" class="h">d</text></svg><svg x="7488"><use xlink:href="#a"/><use xlink:href="#b" x="18.996" y="10.83"/><use xlink:href="#17"/><use xlink:href="#18" y="2.171"/><use xlink:href="#19" y="4.342"/><use xlink:href="#20" y="6.513"/><use xlink:href="#21" y="8.684"/><text y="12.525" class="f">➤</text><text x="3.006" y="12.525" class="g">.dotfiles</text><text x="13.026" y="12.525" class="h">agp</text><text x="17.034" y="12.525" class="h">da</text></svg><svg x="7584"><use xlink:href="#a"/><use xlink:href="#b" x="19.996" y="10.83"/><use xlink:href="#17"/><use xlink:href="#18" y="2.171"/><use xlink:href="#19" y="4.342"/><use xlink:href="#20" y="6.513"/><use xlink:href="#21" y="8.684"/><text y="12.525" class="f">➤</text><text x="3.006" y="12.525" class="g">.dotfiles</text><text x="13.026" y="12.525" class="h">agp</text><text x="17.034" y="12.525" class="h">dan</text></svg><svg x="7680"><use xlink:href="#a"/><use xlink:href="#b" x="20.996" y="10.83"/><use xlink:href="#17"/><use xlink:href="#18" y="2.171"/><use xlink:href="#19" y="4.342"/><use xlink:href="#20" y="6.513"/><use xlink:href="#21" y="8.684"/><text y="12.525" class="f">➤</text><text x="3.006" y="12.525" class="g">.dotfiles</text><text x="13.026" y="12.525" class="h">agp</text><text x="17.034" y="12.525" class="h">dann</text></svg><svg x="7776"><use xlink:href="#a"/><use xlink:href="#b" x="21.996" y="10.83"/><use xlink:href="#17"/><use xlink:href="#18" y="2.171"/><use xlink:href="#19" y="4.342"/><use xlink:href="#20" y="6.513"/><use xlink:href="#21" y="8.684"/><use xlink:href="#23" y="10.855"/></svg><svg x="7872"><use xlink:href="#a"/><use xlink:href="#b" x="-.004" y="13.001"/><use xlink:href="#17"/><use xlink:href="#18" y="2.171"/><use xlink:href="#19" y="4.342"/><use xlink:href="#20" y="6.513"/><use xlink:href="#21" y="8.684"/><use xlink:href="#23" y="10.855"/></svg><svg x="7968"><use xlink:href="#a"/><use xlink:href="#b" x="-.004" y="13.001"/><use xlink:href="#17"/><use xlink:href="#18" y="2.171"/><use xlink:href="#19" y="4.342"/><use xlink:href="#20" y="6.513"/><use xlink:href="#21" y="8.684"/><use xlink:href="#23" y="10.855"/></svg><svg x="8064"><use xlink:href="#a"/><use xlink:href="#b" x="-.004" y="13.001"/></svg><svg x="8160"><use xlink:href="#a"/><use xlink:href="#b" x="4.996" y="28.198"/><text y="14.696" class="f">README.md</text><text y="16.867" class="q">1</text><text x="1.002" y="16.867" class="h">:#</text><path class="r" d="M4.008 15.197h5v2.171h-5z"/><text x="4.008" y="16.867" class="s">Danny</text><text x="9.018" y="16.867" class="h">&apos;s</text><text x="12.024" y="16.867" class="h">dotfiles</text><text y="19.038" class="q">19</text><text x="2.004" y="19.038" class="h">:+</text><text x="5.01" y="19.038" class="h">ZSH_THEME=&quot;eck</text><path class="r" d="M19.038 17.368h5v2.171h-5z"/><text x="19.038" y="19.038" class="s">danny</text><text x="24.048" y="19.038" class="h">&quot;</text><text y="21.209" class="q">35</text><text x="2.004" y="21.209" class="h">:|</text><path class="r" d="M10.02 19.539h5v2.171h-5z"/><text x="10.02" y="21.209" class="s">Danny</text><text x="16.032" y="21.209" class="h">Eck</text><text x="25.05" y="21.209" class="h">|</text><text y="25.551" class="f">demo.cast</text><text y="27.722" class="q">84</text><text x="2.004" y="27.722" class="h">:[18.377475,</text><text x="15.03" y="27.722" class="h">&quot;o&quot;,</text><text x="20.04" y="27.722" class="h">&quot;\u001b]2;ag</text><text x="33.066" y="27.722" class="h">--pager</text><text x="41.082" y="27.722" class="h">LESS</text><path class="r" d="M46.092 26.052h5v2.171h-5z"/><text x="46.092" y="27.722" class="s">danny</text><text x="51.102" y="27.722" class="h">\u0007\u001b]1;agp\u0007&quot;]</text><path fill="#b9c0cb" d="M0 28.223h5v2.171H0z"/><text y="29.893" style="white-space:pre" fill="#282d35">(END)</text></svg><svg x="8256"><use xlink:href="#a"/><use xlink:href="#b" x="-.004" y="13.001"/><use xlink:href="#17"/><use xlink:href="#18" y="2.171"/><use xlink:href="#19" y="4.342"/><use xlink:href="#20" y="6.513"/><use xlink:href="#21" y="8.684"/><use xlink:href="#23" y="10.855"/></svg><svg x="8352"><use xlink:href="#a"/><use xlink:href="#b" x="-.004" y="13.001"/><use xlink:href="#17"/><use xlink:href="#18" y="2.171"/><use xlink:href="#19" y="4.342"/><use xlink:href="#20" y="6.513"/><use xlink:href="#21" y="8.684"/><use xlink:href="#23" y="10.855"/></svg><svg x="8448"><use xlink:href="#a"/><use xlink:href="#b" x="-.004" y="13.001"/><use xlink:href="#17"/><use xlink:href="#18" y="2.171"/><use xlink:href="#19" y="4.342"/><use xlink:href="#20" y="6.513"/><use xlink:href="#21" y="8.684"/><use xlink:href="#23" y="10.855"/></svg><svg x="8544"><use xlink:href="#a"/><use xlink:href="#b" x="12.996" y="13.001"/><use xlink:href="#17"/><use xlink:href="#18" y="2.171"/><use xlink:href="#19" y="4.342"/><use xlink:href="#20" y="6.513"/><use xlink:href="#21" y="8.684"/><use xlink:href="#23" y="10.855"/><use xlink:href="#1" y="13.026"/></svg><svg x="8640"><use xlink:href="#a"/><use xlink:href="#b" x="12.996" y="13.001"/><use xlink:href="#17"/><use xlink:href="#18" y="2.171"/><use xlink:href="#19" y="4.342"/><use xlink:href="#20" y="6.513"/><use xlink:href="#21" y="8.684"/><use xlink:href="#23" y="10.855"/><use xlink:href="#1" y="13.026"/></svg><svg x="8736"><use xlink:href="#a"/><use xlink:href="#b" x="12.996"/><use xlink:href="#1"/></svg><svg x="8832"><use xlink:href="#a"/><use xlink:href="#b" x="13.996"/><text y="1.67" class="f">➤</text><text x="3.006" y="1.67" class="g">.dotfiles</text><text x="13.026" y="1.67" class="h">j</text></svg><svg x="8928"><use xlink:href="#a"/><use xlink:href="#b" x="14.996"/><use xlink:href="#24"/></svg><svg x="9024"><use xlink:href="#a"/><use xlink:href="#b" x="15.996"/><use xlink:href="#24"/></svg><svg x="9120"><use xlink:href="#a"/><use xlink:href="#b" x="16.996"/><text y="1.67" class="f">➤</text><text x="3.006" y="1.67" class="g">.dotfiles</text><text x="13.026" y="1.67" class="h">jq</text><text x="16.032" y="1.67" class="h">.</text></svg><svg x="9216"><use xlink:href="#a"/><use xlink:href="#b" x="15.996"/><use xlink:href="#24"/></svg><svg x="9312"><use xlink:href="#a"/><use xlink:href="#b" x="16.996"/><use xlink:href="#25"/></svg><svg x="9408"><use xlink:href="#a"/><use xlink:href="#b" x="17.996"/><text y="1.67" class="f">➤</text><text x="3.006" y="1.67" class="g">.dotfiles</text><text x="13.026" y="1.67" class="h">jq</text><text x="16.032" y="1.67" class="h">&apos;n</text></svg><svg x="9504"><use xlink:href="#a"/><use xlink:href="#b" x="16.996"/><use xlink:href="#25"/></svg><svg x="9600"><use xlink:href="#a"/><use xlink:href="#b" x="17.996"/><text y="1.67" class="f">➤</text><text x="3.006" y="1.67" class="g">.dotfiles</text><text x="13.026" y="1.67" class="h">jq</text><text x="16.032" y="1.67" class="h">&apos;.</text></svg><svg x="9696"><use xlink:href="#a"/><use xlink:href="#b" x="18.996"/><text y="1.67" class="f">➤</text><text x="3.006" y="1.67" class="g">.dotfiles</text><text x="13.026" y="1.67" class="h">jq</text><text x="16.032" y="1.67" class="h">&apos;.n</text></svg><svg x="9792"><use xlink:href="#a"/><use xlink:href="#b" x="19.996"/><text y="1.67" class="f">➤</text><text x="3.006" y="1.67" class="g">.dotfiles</text><text x="13.026" y="1.67" class="h">jq</text><text x="16.032" y="1.67" class="h">&apos;.na</text></svg><svg x="9888"><use xlink:href="#a"/><use xlink:href="#b" x="20.996"/><text y="1.67" class="f">➤</text><text x="3.006" y="1.67" class="g">.dotfiles</text><text x="13.026" y="1.67" class="h">jq</text><text x="16.032" y="1.67" class="h">&apos;.nam</text></svg><svg x="9984"><use xlink:href="#a"/><use xlink:href="#b" x="21.996"/><text y="1.67" class="f">➤</text><text x="3.006" y="1.67" class="g">.dotfiles</text><text x="13.026" y="1.67" class="h">jq</text><text x="16.032" y="1.67" class="h">&apos;.name</text></svg><svg x="10080"><use xlink:href="#a"/><use xlink:href="#b" x="22.996"/><text y="1.67" class="f">➤</text><text x="3.006" y="1.67" class="g">.dotfiles</text><text x="13.026" y="1.67" class="h">jq</text><text x="16.032" y="1.67" class="h">&apos;.name,</text></svg><svg x="10176"><use xlink:href="#a"/><use xlink:href="#b" x="23.996"/><text y="1.67" class="f">➤</text><text x="3.006" y="1.67" class="g">.dotfiles</text><text x="13.026" y="1.67" class="h">jq</text><text x="16.032" y="1.67" class="h">&apos;.name,.</text></svg><svg x="10272"><use xlink:href="#a"/><use xlink:href="#b" x="24.996"/><text y="1.67" class="f">➤</text><text x="3.006" y="1.67" class="g">.dotfiles</text><text x="13.026" y="1.67" class="h">jq</text><text x="16.032" y="1.67" class="h">&apos;.name,.v</text></svg><svg x="10368"><use xlink:href="#a"/><use xlink:href="#b" x="25.996"/><text y="1.67" class="f">➤</text><text x="3.006" y="1.67" class="g">.dotfiles</text><text x="13.026" y="1.67" class="h">jq</text><text x="16.032" y="1.67" class="h">&apos;.name,.ve</text></svg><svg x="10464"><use xlink:href="#a"/><use xlink:href="#b" x="26.996"/><text y="1.67" class="f">➤</text><text x="3.006" y="1.67" class="g">.dotfiles</text><text x="13.026" y="1.67" class="h">jq</text><text x="16.032" y="1.67" class="h">&apos;.name,.ver</text></svg><svg x="10560"><use xlink:href="#a"/><use xlink:href="#b" x="27.996"/><text y="1.67" class="f">➤</text><text x="3.006" y="1.67" class="g">.dotfiles</text><text x="13.026" y="1.67" class="h">jq</text><text x="16.032" y="1.67" class="h">&apos;.name,.vers</text></svg><svg x="10656"><use xlink:href="#a"/><use xlink:href="#b" x="28.996"/><text y="1.67" class="f">➤</text><text x="3.006" y="1.67" class="g">.dotfiles</text><text x="13.026" y="1.67" class="h">jq</text><text x="16.032" y="1.67" class="h">&apos;.name,.versi</text></svg><svg x="10752"><use xlink:href="#a"/><use xlink:href="#b" x="29.996"/><text y="1.67" class="f">➤</text><text x="3.006" y="1.67" class="g">.dotfiles</text><text x="13.026" y="1.67" class="h">jq</text><text x="16.032" y="1.67" class="h">&apos;.name,.versio</text></svg><svg x="10848"><use xlink:href="#a"/><use xlink:href="#b" x="30.996"/><text y="1.67" class="f">➤</text><text x="3.006" y="1.67" class="g">.dotfiles</text><text x="13.026" y="1.67" class="h">jq</text><text x="16.032" y="1.67" class="h">&apos;.name,.version</text></svg><svg x="10944"><use xlink:href="#a"/><use xlink:href="#b" x="31.996"/><use xlink:href="#26"/></svg><svg x="11040"><use xlink:href="#a"/><use xlink:href="#b" x="32.996"/><use xlink:href="#26"/></svg><svg x="11136"><use xlink:href="#a"/><use xlink:href="#b" x="33.996"/><text y="1.67" class="f">➤</text><text x="3.006" y="1.67" class="g">.dotfiles</text><text x="13.026" y="1.67" class="h">jq</text><text x="16.032" y="1.67" class="h">&apos;.name,.version&apos;</text><text x="33.066" y="1.67" class="h">o</text></svg><svg x="11232"><use xlink:href="#a"/><use xlink:href="#b" x="34.996"/><text y="1.67" class="f">➤</text><text x="3.006" y="1.67" class="g">.dotfiles</text><text x="13.026" y="1.67" class="h">jq</text><text x="16.032" y="1.67" class="h">&apos;.name,.version&apos;</text><text x="33.066" y="1.67" class="h">oh</text></svg><svg x="11328"><use xlink:href="#a"/><use xlink:href="#b" x="40.996"/><text y="1.67" class="f">➤</text><text x="3.006" y="1.67" class="g">.dotfiles</text><text x="13.026" y="1.67" class="h">jq</text><text x="16.032" y="1.67" class="h">&apos;.name,.version&apos;</text><text x="33.066" y="1.67" class="h">ohmyzsh</text><text x="40.08" y="1.67" class="v">/</text></svg><svg x="11424"><use xlink:href="#a"/><use xlink:href="#b" x="41.996"/><text y="1.67" class="f">➤</text><text x="3.006" y="1.67" class="g">.dotfiles</text><text x="13.026" y="1.67" class="h">jq</text><text x="16.032" y="1.67" class="h">&apos;.name,.version&apos;</text><text x="33.066" y="1.67" class="h">ohmyzsh/p</text></svg><svg x="11520"><use xlink:href="#a"/><use xlink:href="#b" x="42.996"/><text y="1.67" class="f">➤</text><text x="3.006" y="1.67" class="g">.dotfiles</text><text x="13.026" y="1.67" class="h">jq</text><text x="16.032" y="1.67" class="h">&apos;.name,.version&apos;</text><text x="33.066" y="1.67" class="h">ohmyzsh/pl</text></svg><svg x="11616"><use xlink:href="#a"/><use xlink:href="#b" x="43.996"/><text y="1.67" class="f">➤</text><text x="3.006" y="1.67" class="g">.dotfiles</text><text x="13.026" y="1.67" class="h">jq</text><text x="16.032" y="1.67" class="h">&apos;.name,.version&apos;</text><text x="33.066" y="1.67" class="h">ohmyzsh/plu</text></svg><svg x="11712"><use xlink:href="#a"/><use xlink:href="#b" x="48.996"/><text y="1.67" class="f">➤</text><text x="3.006" y="1.67" class="g">.dotfiles</text><text x="13.026" y="1.67" class="h">jq</text><text x="16.032" y="1.67" class="h">&apos;.name,.version&apos;</text><text x="33.066" y="1.67" class="h">ohmyzsh/plugins</text><text x="48.096" y="1.67" class="v">/</text></svg><svg x="11808"><use xlink:href="#a"/><use xlink:href="#b" x="49.996"/><text y="1.67" class="f">➤</text><text x="3.006" y="1.67" class="g">.dotfiles</text><text x="13.026" y="1.67" class="h">jq</text><text x="16.032" y="1.67" class="h">&apos;.name,.version&apos;</text><text x="33.066" y="1.67" class="h">ohmyzsh/plugins/g</text></svg><svg x="11904"><use xlink:href="#a"/><use xlink:href="#b" x="50.996"/><text y="1.67" class="f">➤</text><text x="3.006" y="1.67" class="g">.dotfiles</text><text x="13.026" y="1.67" class="h">jq</text><text x="16.032" y="1.67" class="h">&apos;.name,.version&apos;</text><text x="33.066" y="1.67" class="h">ohmyzsh/plugins/gi</text></svg><svg x="12000"><use xlink:href="#a"/><use xlink:href="#b" x="57.996"/><text y="1.67" class="f">➤</text><text x="3.006" y="1.67" class="g">.dotfiles</text><text x="13.026" y="1.67" class="h">jq</text><text x="16.032" y="1.67" class="h">&apos;.name,.version&apos;</text><text x="33.066" y="1.67" class="h">ohmyzsh/plugins/git-open</text><text x="57.114" y="1.67" class="v">/</text></svg><svg x="12096"><use xlink:href="#a"/><use xlink:href="#b" x="58.996"/><text y="1.67" class="f">➤</text><text x="3.006" y="1.67" class="g">.dotfiles</text><text x="13.026" y="1.67" class="h">jq</text><text x="16.032" y="1.67" class="h">&apos;.name,.version&apos;</text><text x="33.066" y="1.67" class="h">ohmyzsh/plugins/git-open/p</text></svg><svg x="12192"><use xlink:href="#a"/><use xlink:href="#b" x="59.996"/><text y="1.67" class="f">➤</text><text x="3.006" y="1.67" class="g">.dotfiles</text><text x="13.026" y="1.67" class="h">jq</text><text x="16.032" y="1.67" class="h">&apos;.name,.version&apos;</text><text x="33.066" y="1.67" class="h">ohmyzsh/plugins/git-open/pa</text></svg><svg x="12288"><use xlink:href="#a"/><use xlink:href="#b" x="60.996"/><text y="1.67" class="f">➤</text><text x="3.006" y="1.67" class="g">.dotfiles</text><text x="13.026" y="1.67" class="h">jq</text><text x="16.032" y="1.67" class="h">&apos;.name,.version&apos;</text><text x="33.066" y="1.67" class="h">ohmyzsh/plugins/git-open/pac</text></svg><svg x="12384"><use xlink:href="#a"/><use xlink:href="#b" x="61.996"/><text y="1.67" class="f">➤</text><text x="3.006" y="1.67" class="g">.dotfiles</text><text x="13.026" y="1.67" class="h">jq</text><text x="16.032" y="1.67" class="h">&apos;.name,.version&apos;</text><text x="33.066" y="1.67" class="h">ohmyzsh/plugins/git-open/pack</text></svg><svg x="12480"><use xlink:href="#a"/><use xlink:href="#b" x="64.996"/><text y="1.67" class="f">➤</text><text x="3.006" y="1.67" class="g">.dotfiles</text><text x="13.026" y="1.67" class="h">jq</text><text x="16.032" y="1.67" class="h">&apos;.name,.version&apos;</text><text x="33.066" y="1.67" class="h">ohmyzsh/plugins/git-open/package</text></svg><svg x="12576"><use xlink:href="#a"/><use xlink:href="#b" x="65.996"/><text y="1.67" class="f">➤</text><text x="3.006" y="1.67" class="g">.dotfiles</text><text x="13.026" y="1.67" class="h">jq</text><text x="16.032" y="1.67" class="h">&apos;.name,.version&apos;</text><text x="33.066" y="1.67" class="h">ohmyzsh/plugins/git-open/package.</text></svg><svg x="12672"><use xlink:href="#a"/><use xlink:href="#b" x="70.996"/><use xlink:href="#27"/></svg><svg x="12768"><use xlink:href="#a"/><use xlink:href="#b" x="69.996"/><use xlink:href="#27"/></svg><svg x="12864"><use xlink:href="#a"/><use xlink:href="#b" x="-.004" y="2.146"/><use xlink:href="#27"/></svg><svg x="12960"><use xlink:href="#a"/><use xlink:href="#b" x="-.004" y="2.146"/><use xlink:href="#27"/></svg><svg x="13056"><use xlink:href="#a"/><use xlink:href="#b" x="-.004" y="6.488"/><use xlink:href="#27"/><use xlink:href="#28" y="2.171"/><use xlink:href="#29" y="4.342"/></svg><svg x="13152"><use xlink:href="#a"/><use xlink:href="#b" x="-.004" y="6.488"/><use xlink:href="#27"/><use xlink:href="#28" y="2.171"/><use xlink:href="#29" y="4.342"/></svg><svg x="13248"><use xlink:href="#a"/><use xlink:href="#b" x="-.004" y="6.488"/><use xlink:href="#27"/><use xlink:href="#28" y="2.171"/><use xlink:href="#29" y="4.342"/></svg><svg x="13344"><use xlink:href="#a"/><use xlink:href="#b" x="12.996" y="6.488"/><use xlink:href="#27"/><use xlink:href="#28" y="2.171"/><use xlink:href="#29" y="4.342"/><use xlink:href="#1" y="6.513"/></svg><svg x="13440"><use xlink:href="#a"/><use xlink:href="#b" x="12.996" y="6.488"/><use xlink:href="#27"/><use xlink:href="#28" y="2.171"/><use xlink:href="#29" y="4.342"/><use xlink:href="#1" y="6.513"/></svg><svg x="13536"><use xlink:href="#a"/><use xlink:href="#b" x="12.996" y="6.488"/><use xlink:href="#27"/><use xlink:href="#28" y="2.171"/><use xlink:href="#29" y="4.342"/><use xlink:href="#1" y="6.513"/></svg><svg x="13632"><use xlink:href="#a"/><use xlink:href="#b" x="-.004" y="8.659"/><use xlink:href="#27"/><use xlink:href="#28" y="2.171"/><use xlink:href="#29" y="4.342"/><use xlink:href="#1" y="6.513"/></svg></svg></g></g></svg></svg>